<svg width="90" height="90" viewBox="0 0 90 90" fill="none" xmlns="http://www.w3.org/2000/svg">
<path d="M39.9055 89.9985C61.9447 89.9985 79.811 72.1322 79.811 50.093C79.811 28.0538 61.9447 10.1875 39.9055 10.1875C17.8663 10.1875 0 28.0538 0 50.093C0 72.1322 17.8663 89.9985 39.9055 89.9985Z" fill="#C9E3F7"/>
<path d="M39.9055 10.1885C61.9448 10.1885 79.811 28.0547 79.811 50.094C79.811 72.1333 61.9448 89.9997 39.9055 89.9997" fill="#78B9EB"/>
<path d="M39.9056 78.027C55.3331 78.027 67.8395 65.5206 67.8395 50.0931C67.8395 34.6656 55.3331 22.1592 39.9056 22.1592C24.4781 22.1592 11.9717 34.6656 11.9717 50.0931C11.9717 65.5206 24.4781 78.027 39.9056 78.027Z" fill="white"/>
<path d="M39.9055 22.1602C55.333 22.1602 67.8394 34.6663 67.8394 50.0941C67.8394 65.5215 55.333 78.028 39.9055 78.028" fill="#FFDA44"/>
<path d="M39.9055 66.0552C48.7212 66.0552 55.8677 58.9087 55.8677 50.093C55.8677 41.2774 48.7212 34.1309 39.9055 34.1309C31.0899 34.1309 23.9434 41.2774 23.9434 50.093C23.9434 58.9087 31.0899 66.0552 39.9055 66.0552Z" fill="#FF9811"/>
<path d="M39.9055 34.1318C48.7213 34.1318 55.8677 41.278 55.8677 50.094C55.8677 58.9098 48.7211 66.0562 39.9055 66.0562" fill="#FF5023"/>
<path d="M90 18.7007V12.715H81.5179L85.7591 8.47371L81.5263 4.2409L77.2852 8.48215V0H71.2995V14.468L40.6612 45.1062L39.9055 50.0945L44.8938 49.3388L75.532 18.7007H90Z" fill="#3C5D76"/>
</svg>
