<svg width="40" height="40" viewBox="0 0 40 40" fill="none" xmlns="http://www.w3.org/2000/svg">
<g clip-path="url(#clip0_133_579)">
<path d="M19.9994 14.3182C16.8672 14.3182 14.3168 16.8673 14.3168 19.9995C14.3168 23.1329 16.8672 25.6833 19.9994 25.6833C23.1328 25.6833 25.682 23.1329 25.682 19.9995C25.682 16.8673 23.1328 14.3182 19.9994 14.3182ZM19.9994 14.3182C16.8672 14.3182 14.3168 16.8673 14.3168 19.9995C14.3168 23.1329 16.8672 25.6833 19.9994 25.6833C23.1328 25.6833 25.682 23.1329 25.682 19.9995C25.682 16.8673 23.1328 14.3182 19.9994 14.3182ZM29.4661 5.05332H10.5339C7.51205 5.05332 5.0532 7.51217 5.0532 10.534V29.4663C5.0532 32.4881 7.51205 34.947 10.5339 34.947H29.4661C32.488 34.947 34.9468 32.4881 34.9468 29.4663V10.534C34.9468 7.51217 32.488 5.05332 29.4661 5.05332ZM19.9994 29.8412C14.5739 29.8412 10.159 25.4263 10.159 19.9995C10.159 14.574 14.5739 10.1591 19.9994 10.1591C25.4262 10.1591 29.8411 14.574 29.8411 19.9995C29.8411 25.4263 25.4262 29.8412 19.9994 29.8412ZM30.157 12.1941C28.8731 12.1941 27.8286 11.1497 27.8286 9.86569C27.8286 8.58172 28.8731 7.53725 30.157 7.53725C31.441 7.53725 32.4855 8.58172 32.4855 9.86569C32.4855 11.1497 31.441 12.1941 30.157 12.1941ZM19.9994 14.3182C16.8672 14.3182 14.3168 16.8673 14.3168 19.9995C14.3168 23.1329 16.8672 25.6833 19.9994 25.6833C23.1328 25.6833 25.682 23.1329 25.682 19.9995C25.682 16.8673 23.1328 14.3182 19.9994 14.3182ZM29.4661 5.05332H10.5339C7.51205 5.05332 5.0532 7.51217 5.0532 10.534V29.4663C5.0532 32.4881 7.51205 34.947 10.5339 34.947H29.4661C32.488 34.947 34.9468 32.4881 34.9468 29.4663V10.534C34.9468 7.51217 32.488 5.05332 29.4661 5.05332ZM19.9994 29.8412C14.5739 29.8412 10.159 25.4263 10.159 19.9995C10.159 14.574 14.5739 10.1591 19.9994 10.1591C25.4262 10.1591 29.8411 14.574 29.8411 19.9995C29.8411 25.4263 25.4262 29.8412 19.9994 29.8412ZM30.157 12.1941C28.8731 12.1941 27.8286 11.1497 27.8286 9.86569C27.8286 8.58172 28.8731 7.53725 30.157 7.53725C31.441 7.53725 32.4855 8.58172 32.4855 9.86569C32.4855 11.1497 31.441 12.1941 30.157 12.1941ZM19.9994 14.3182C16.8672 14.3182 14.3168 16.8673 14.3168 19.9995C14.3168 23.1329 16.8672 25.6833 19.9994 25.6833C23.1328 25.6833 25.682 23.1329 25.682 19.9995C25.682 16.8673 23.1328 14.3182 19.9994 14.3182ZM-8.57141 -8.57129V48.5716H48.5714V-8.57129H-8.57141ZM39.1047 29.4663C39.1047 34.7814 34.7813 39.1048 29.4661 39.1048H10.5339C5.21871 39.1048 0.895347 34.7814 0.895347 29.4663V10.534C0.895347 5.21883 5.21871 0.895469 10.5339 0.895469H29.4661C34.7813 0.895469 39.1047 5.21883 39.1047 10.534V29.4663ZM29.4661 5.05332H10.5339C7.51205 5.05332 5.0532 7.51217 5.0532 10.534V29.4663C5.0532 32.4881 7.51205 34.947 10.5339 34.947H29.4661C32.488 34.947 34.9468 32.4881 34.9468 29.4663V10.534C34.9468 7.51217 32.488 5.05332 29.4661 5.05332ZM19.9994 29.8412C14.5739 29.8412 10.159 25.4263 10.159 19.9995C10.159 14.574 14.5739 10.1591 19.9994 10.1591C25.4262 10.1591 29.8411 14.574 29.8411 19.9995C29.8411 25.4263 25.4262 29.8412 19.9994 29.8412ZM30.157 12.1941C28.8731 12.1941 27.8286 11.1497 27.8286 9.86569C27.8286 8.58172 28.8731 7.53725 30.157 7.53725C31.441 7.53725 32.4855 8.58172 32.4855 9.86569C32.4855 11.1497 31.441 12.1941 30.157 12.1941ZM19.9994 14.3182C16.8672 14.3182 14.3168 16.8673 14.3168 19.9995C14.3168 23.1329 16.8672 25.6833 19.9994 25.6833C23.1328 25.6833 25.682 23.1329 25.682 19.9995C25.682 16.8673 23.1328 14.3182 19.9994 14.3182ZM19.9994 14.3182C16.8672 14.3182 14.3168 16.8673 14.3168 19.9995C14.3168 23.1329 16.8672 25.6833 19.9994 25.6833C23.1328 25.6833 25.682 23.1329 25.682 19.9995C25.682 16.8673 23.1328 14.3182 19.9994 14.3182ZM19.9994 14.3182C16.8672 14.3182 14.3168 16.8673 14.3168 19.9995C14.3168 23.1329 16.8672 25.6833 19.9994 25.6833C23.1328 25.6833 25.682 23.1329 25.682 19.9995C25.682 16.8673 23.1328 14.3182 19.9994 14.3182ZM29.4661 5.05332H10.5339C7.51205 5.05332 5.0532 7.51217 5.0532 10.534V29.4663C5.0532 32.4881 7.51205 34.947 10.5339 34.947H29.4661C32.488 34.947 34.9468 32.4881 34.9468 29.4663V10.534C34.9468 7.51217 32.488 5.05332 29.4661 5.05332ZM19.9994 29.8412C14.5739 29.8412 10.159 25.4263 10.159 19.9995C10.159 14.574 14.5739 10.1591 19.9994 10.1591C25.4262 10.1591 29.8411 14.574 29.8411 19.9995C29.8411 25.4263 25.4262 29.8412 19.9994 29.8412ZM30.157 12.1941C28.8731 12.1941 27.8286 11.1497 27.8286 9.86569C27.8286 8.58172 28.8731 7.53725 30.157 7.53725C31.441 7.53725 32.4855 8.58172 32.4855 9.86569C32.4855 11.1497 31.441 12.1941 30.157 12.1941ZM19.9994 14.3182C16.8672 14.3182 14.3168 16.8673 14.3168 19.9995C14.3168 23.1329 16.8672 25.6833 19.9994 25.6833C23.1328 25.6833 25.682 23.1329 25.682 19.9995C25.682 16.8673 23.1328 14.3182 19.9994 14.3182ZM19.9994 14.3182C16.8672 14.3182 14.3168 16.8673 14.3168 19.9995C14.3168 23.1329 16.8672 25.6833 19.9994 25.6833C23.1328 25.6833 25.682 23.1329 25.682 19.9995C25.682 16.8673 23.1328 14.3182 19.9994 14.3182ZM19.9994 14.3182C16.8672 14.3182 14.3168 16.8673 14.3168 19.9995C14.3168 23.1329 16.8672 25.6833 19.9994 25.6833C23.1328 25.6833 25.682 23.1329 25.682 19.9995C25.682 16.8673 23.1328 14.3182 19.9994 14.3182ZM29.4661 5.05332H10.5339C7.51205 5.05332 5.0532 7.51217 5.0532 10.534V29.4663C5.0532 32.4881 7.51205 34.947 10.5339 34.947H29.4661C32.488 34.947 34.9468 32.4881 34.9468 29.4663V10.534C34.9468 7.51217 32.488 5.05332 29.4661 5.05332ZM19.9994 29.8412C14.5739 29.8412 10.159 25.4263 10.159 19.9995C10.159 14.574 14.5739 10.1591 19.9994 10.1591C25.4262 10.1591 29.8411 14.574 29.8411 19.9995C29.8411 25.4263 25.4262 29.8412 19.9994 29.8412ZM30.157 12.1941C28.8731 12.1941 27.8286 11.1497 27.8286 9.86569C27.8286 8.58172 28.8731 7.53725 30.157 7.53725C31.441 7.53725 32.4855 8.58172 32.4855 9.86569C32.4855 11.1497 31.441 12.1941 30.157 12.1941ZM19.9994 14.3182C16.8672 14.3182 14.3168 16.8673 14.3168 19.9995C14.3168 23.1329 16.8672 25.6833 19.9994 25.6833C23.1328 25.6833 25.682 23.1329 25.682 19.9995C25.682 16.8673 23.1328 14.3182 19.9994 14.3182Z" fill="white"/>
</g>
<defs>
<clipPath id="clip0_133_579">
<rect width="40" height="40" rx="5" fill="white"/>
</clipPath>
</defs>
</svg>
