<svg width="80" height="80" viewBox="0 0 80 80" fill="none" xmlns="http://www.w3.org/2000/svg">
<path d="M58.2783 32.174H45.2348V13.9131C45.2348 11.3392 41.8783 10.3304 40.4522 12.4697L19.5826 43.774C18.4348 45.5131 19.687 47.8262 21.7566 47.8262H34.8V66.0872C34.8 68.6784 38.1566 69.6698 39.5826 67.5306L40 66.9045L60.4522 36.2262C61.6 34.4872 60.3478 32.174 58.2783 32.174Z" fill="#FFE477"/>
<path d="M80 40.0002C80 62.0524 62.052 80.0002 40 80.0002C29.2697 80.0002 19.113 75.6872 11.6695 68.2089V71.3046C11.6695 72.748 10.5045 73.9133 9.06079 73.9133C7.61735 73.9133 6.45204 72.7481 6.45204 71.3046V61.4263C6.10423 59.7044 7.49564 58.2611 9.06079 58.2611H19.4956C20.9392 58.2611 22.1044 59.4263 22.1044 60.8699C22.1044 62.3133 20.9394 63.4786 19.4956 63.4786H14.3827C20.9217 70.6264 30.1739 74.783 40 74.783C59.1827 74.783 74.7827 59.183 74.7827 40.0003C74.7827 36.696 74.3131 33.4264 73.4088 30.296C73.0088 28.9047 73.7914 27.4611 75.1827 27.0611C76.5566 26.6611 78.0175 27.4611 78.4177 28.835C79.4606 32.4524 80 36.2089 80 40.0002Z" fill="#7CCC92"/>
<path d="M73.913 8.69563V19.1305C73.913 20.5217 72.8867 21.7392 71.0262 21.7392C71.0089 21.7392 71.0089 21.7392 71.0089 21.7392H60.8695C59.4259 21.7392 58.2608 20.5741 58.2608 19.1305C58.2608 17.6869 59.4258 16.5217 60.8695 16.5217H65.6173C59.0783 9.37391 49.8261 5.21734 40 5.21734C20.8173 5.21734 5.21734 20.8173 5.21734 40C5.21734 43.3044 5.68687 46.5739 6.59125 49.7044C6.99125 51.0956 6.20859 52.5392 4.81734 52.9392C4.57391 53.0088 4.33031 53.0436 4.08687 53.0436C2.95641 53.0436 1.91297 52.2958 1.58234 51.1653C0.539375 47.5478 0 43.7912 0 40C0 17.9478 17.948 0 40 0C50.9217 0 61.2173 4.45219 68.6956 12.1739V8.69563C68.6956 7.25219 69.8606 6.08687 71.3044 6.08687C72.748 6.08703 73.913 7.25219 73.913 8.69563Z" fill="#7CCC92"/>
<path d="M80 40.0003C80 62.0525 62.052 80.0003 40 80.0003V74.783C59.1827 74.783 74.7827 59.183 74.7827 40.0003C74.7827 36.696 74.3131 33.4264 73.4088 30.296C73.0088 28.9047 73.7914 27.4611 75.1827 27.0611C76.5566 26.6611 78.0175 27.4611 78.4177 28.835C79.4606 32.4525 80 36.2091 80 40.0003Z" fill="#34B772"/>
<path d="M73.913 8.69563V19.1305C73.913 20.5217 72.8867 21.7392 71.0262 21.7392C71.0089 21.7392 71.0089 21.7392 71.0089 21.7392H60.8695C59.4259 21.7392 58.2608 20.5741 58.2608 19.1305C58.2608 17.6869 59.4258 16.5217 60.8695 16.5217H65.6173C59.0783 9.37391 49.8261 5.21734 40 5.21734V0C50.9217 0 61.2173 4.45219 68.6956 12.1739V8.69563C68.6956 7.25219 69.8606 6.08687 71.3044 6.08687C72.748 6.08703 73.913 7.25219 73.913 8.69563Z" fill="#34B772"/>
<path d="M60.4522 36.2262L40 66.9044V13.1479L40.4522 12.4696C41.8783 10.3305 45.2348 11.3391 45.2348 13.913V32.174H58.2783C60.3478 32.174 61.6 34.4871 60.4522 36.2262Z" fill="#FFB655"/>
</svg>
