<svg width="35" height="30" viewBox="0 0 35 30" fill="none" xmlns="http://www.w3.org/2000/svg">
<path d="M32.0161 0.257492C32.0161 0.257492 35.2538 -1.00501 34.984 2.06107C34.8941 3.32358 34.0847 7.74233 33.4551 12.5218L31.2966 26.6799C31.2966 26.6799 31.1167 28.754 29.4978 29.1147C27.8789 29.4754 25.4507 27.8522 25.0009 27.4915C24.6412 27.221 18.2557 23.1629 16.0072 21.179C15.3776 20.6379 14.6581 19.5557 16.0971 18.2932L25.5406 9.27542C26.6198 8.19325 27.6991 5.66825 23.2022 8.73433L10.6109 17.3013C10.6109 17.3013 9.17192 18.2031 6.47383 17.3915L0.627851 15.5879C0.627851 15.5879 -1.53066 14.2352 2.15679 12.8825C11.1506 8.64408 22.2129 4.3155 32.0161 0.257492Z" fill="white"/>
</svg>
