<svg width="80" height="80" viewBox="0 0 80 80" fill="none" xmlns="http://www.w3.org/2000/svg">
<path d="M40 0C17.9086 0 0 17.9086 0 40C0 62.0914 17.9086 80 40 80C62.0914 80 80 62.0914 80 40C80 17.9086 62.0914 0 40 0ZM60.4053 35.4163L39.4917 56.3298C38.3119 57.5097 36.7113 58.1727 35.0425 58.1727C33.3737 58.1727 31.7733 57.5097 30.5933 56.3297L19.5952 45.3314C17.138 42.8742 17.138 38.8903 19.5953 36.433C22.0527 33.9759 26.0366 33.9758 28.4937 36.4331L35.0427 42.9823L51.5069 26.5181C53.9642 24.0609 57.948 24.0609 60.4055 26.5183C62.8623 28.975 62.8623 32.9591 60.4053 35.4163Z" fill="#34B772"/>
</svg>
