<svg width="45" height="45" viewBox="0 0 45 45" fill="none" xmlns="http://www.w3.org/2000/svg">
<path d="M42.8231 11.2978L34.8216 10.6636L34.1817 2.79281L27.3966 6.03L22.7236 0L18.3713 6.15656L11.3934 2.475L11.0095 10.5356L3.07266 10.9167L6.08062 18.533L0 22.2778L6.20859 26.9747L3.07266 33.6389L10.8183 34.5277L11.2669 42.1439L18.5006 38.7169L23.2355 45L27.4598 38.6536L34.117 41.8908L34.6936 34.02L42.4392 33.8302L39.5592 27.2925L45 22.5956L39.0473 17.7722L42.8231 11.2978ZM20.3723 29.6606L14.0512 24.0455L15.4519 22.4691L20.0925 26.5908L29.565 14.4619L31.2272 15.7598L20.3723 29.6606Z" fill="#1CA2ED"/>
<path d="M20.092 26.5898L15.4514 22.4695L14.0508 24.0459L20.3719 29.6611L31.2267 15.7589L29.5645 14.4609L20.092 26.5898Z" fill="white"/>
</svg>
